<?xml version="1.0" standalone="no"?>
<!DOCTYPE svg PUBLIC "-//W3C//DTD SVG 20010904//EN"
 "http://www.w3.org/TR/2001/REC-SVG-20010904/DTD/svg10.dtd">
<svg version="1.0" xmlns="http://www.w3.org/2000/svg"
 width="6400.000000pt" height="4800.000000pt" viewBox="0 0 6400.000000 4800.000000"
 preserveAspectRatio="xMidYMid meet">
<metadata>
Created by potrace 1.15, written by Peter Selinger 2001-2017
</metadata>
<g transform="translate(0.000000,4800.000000) scale(0.100000,-0.100000)"
fill="#000000" stroke="none">
<path d="M28120 37669 c-212 -4 -459 -12 -550 -18 -826 -58 -890 -64 -1550
-151 -210 -28 -570 -85 -597 -95 -6 -2 -56 -11 -110 -20 -355 -59 -817 -154
-1028 -212 -49 -13 -175 -46 -280 -73 -255 -66 -284 -73 -400 -110 -55 -17
-109 -34 -120 -37 -174 -48 -740 -239 -900 -303 -11 -4 -74 -27 -140 -51 -66
-23 -203 -76 -305 -117 -102 -41 -243 -97 -315 -124 -128 -48 -258 -102 -383
-159 -35 -16 -65 -29 -67 -29 -2 0 -36 -15 -77 -34 -68 -32 -235 -106 -443
-198 -49 -21 -127 -57 -173 -79 -46 -21 -85 -39 -88 -39 -8 0 -569 -279 -669
-333 -55 -30 -145 -78 -200 -107 -143 -75 -194 -103 -433 -234 -266 -146 -254
-139 -272 -152 -15 -11 -131 -75 -185 -103 -16 -8 -52 -29 -80 -47 -27 -17
-138 -84 -245 -149 -107 -64 -211 -127 -230 -140 -19 -12 -73 -46 -120 -75
-47 -29 -182 -117 -300 -195 -118 -78 -219 -144 -225 -146 -11 -4 -72 -44
-380 -247 -104 -69 -212 -140 -240 -157 -27 -18 -95 -61 -150 -97 -55 -36
-140 -91 -190 -123 -49 -32 -103 -67 -120 -79 -54 -37 -288 -191 -350 -229
-67 -42 -223 -145 -271 -180 -34 -24 -271 -182 -319 -212 -16 -10 -34 -22 -40
-27 -15 -13 -143 -90 -357 -214 -55 -32 -188 -112 -248 -149 -36 -23 -207
-117 -225 -124 -5 -2 -41 -22 -79 -43 -228 -133 -659 -346 -996 -493 -246
-107 -304 -129 -690 -258 -277 -93 -339 -111 -522 -156 -440 -108 -459 -112
-748 -157 -52 -8 -122 -19 -155 -24 -491 -77 -940 -87 -1420 -30 -242 28 -578
94 -735 145 -41 13 -118 35 -170 50 -180 51 -432 144 -595 220 -55 26 -127 58
-160 70 -33 13 -100 42 -150 65 -49 24 -119 55 -155 70 -68 29 -264 113 -361
155 -31 14 -59 25 -62 25 -3 0 -43 18 -90 40 -47 22 -168 66 -269 99 -270 88
-310 99 -369 107 -47 6 -52 5 -39 -8 8 -8 49 -27 90 -43 41 -15 104 -41 140
-57 36 -17 92 -40 125 -53 33 -13 121 -49 195 -80 74 -32 145 -59 157 -62 12
-3 73 -60 135 -127 186 -200 503 -508 568 -553 29 -20 183 -149 221 -184 22
-22 137 -101 169 -116 33 -17 59 -33 93 -60 16 -13 32 -23 37 -23 5 0 30 -14
55 -31 55 -37 334 -176 460 -230 107 -45 198 -79 212 -79 9 0 24 -6 32 -14 31
-28 288 -109 426 -135 22 -4 62 -18 89 -30 26 -12 74 -27 105 -33 31 -6 65
-14 76 -19 24 -9 246 -61 360 -84 202 -41 341 -64 480 -79 83 -9 204 -23 270
-31 66 -8 239 -17 385 -20 231 -5 305 -3 580 20 319 26 530 48 630 65 245 43
708 137 810 164 69 19 157 41 195 51 39 9 142 40 230 69 88 29 174 56 190 60
60 14 191 58 240 81 28 13 109 44 180 68 124 43 278 103 374 148 25 12 79 34
120 49 42 15 133 55 203 89 70 34 130 61 134 61 8 0 183 87 199 99 6 4 37 18
70 31 33 13 94 40 135 61 41 20 217 107 390 193 460 228 826 416 1055 543 50
28 123 67 164 87 41 21 104 55 140 76 36 22 90 52 118 67 29 15 88 48 130 72
77 43 148 82 478 261 94 51 181 100 195 110 14 9 57 32 95 51 62 30 134 69
332 180 32 18 155 85 273 149 118 64 247 134 285 155 39 20 104 55 145 77 41
22 118 65 170 96 52 31 125 70 161 88 36 17 85 44 109 59 24 15 88 50 144 78
56 28 117 60 136 72 19 12 82 46 140 75 58 30 130 68 160 86 111 64 797 412
1095 556 276 134 387 185 480 223 44 18 116 50 160 70 100 47 482 210 515 220
14 4 30 11 35 15 6 3 33 15 60 25 28 10 68 26 90 35 100 44 177 75 270 107 55
19 114 41 130 48 129 57 628 222 965 320 102 29 226 65 275 80 466 138 1125
284 1550 345 44 6 105 15 135 20 30 5 111 16 180 25 69 9 208 27 310 40 737
97 1661 112 2620 45 80 -6 192 -17 250 -25 112 -15 116 -16 340 -40 80 -9 168
-20 195 -25 28 -5 100 -16 160 -25 94 -14 316 -55 525 -96 332 -66 899 -209
1250 -317 135 -42 570 -186 665 -220 125 -45 357 -133 390 -148 17 -7 59 -24
95 -39 36 -14 74 -30 85 -35 11 -4 72 -29 135 -55 63 -26 120 -51 126 -56 6
-5 28 -15 50 -23 21 -7 82 -34 134 -59 172 -81 245 -114 270 -122 14 -4 32
-13 40 -20 8 -8 27 -16 42 -20 15 -4 32 -13 39 -21 6 -8 19 -14 28 -14 9 0 34
-12 56 -25 22 -14 49 -25 59 -25 11 0 27 -7 37 -16 20 -18 207 -114 222 -114
6 0 18 -7 26 -15 9 -8 67 -40 129 -72 136 -71 177 -92 235 -126 25 -15 52 -27
60 -27 9 0 17 -3 19 -7 5 -13 67 -53 81 -53 7 0 23 -9 35 -20 12 -11 24 -20
27 -20 3 0 32 -18 65 -39 32 -22 68 -42 79 -46 12 -3 21 -10 21 -15 0 -5 10
-12 22 -16 21 -6 77 -42 88 -55 3 -4 23 -16 45 -28 46 -25 65 -37 171 -110 44
-29 84 -54 91 -55 7 -1 20 -10 31 -19 10 -9 22 -17 26 -17 10 0 90 -62 94 -72
2 -5 15 -8 28 -8 15 0 24 -6 24 -15 0 -13 35 -41 99 -80 9 -5 23 -16 31 -23 8
-7 38 -27 65 -44 28 -17 60 -40 73 -51 12 -11 22 -16 22 -12 0 5 13 -4 28 -20
27 -28 161 -131 236 -181 17 -12 46 -35 65 -53 18 -17 35 -31 38 -31 2 0 32
-24 67 -52 34 -29 77 -64 95 -78 72 -54 476 -392 496 -415 6 -6 44 -38 85 -70
137 -109 289 -241 444 -387 34 -31 72 -66 86 -78 14 -12 60 -54 104 -93 43
-40 95 -85 115 -102 44 -37 254 -231 337 -311 134 -131 493 -477 559 -540 126
-120 605 -586 775 -754 92 -91 361 -357 598 -592 237 -236 436 -428 442 -428
5 0 10 -6 10 -12 1 -7 39 -49 86 -93 47 -44 116 -109 153 -145 37 -36 120
-114 185 -175 65 -60 146 -138 180 -172 33 -35 63 -63 66 -63 4 0 60 -53 126
-117 66 -65 163 -157 215 -206 52 -48 101 -94 110 -102 9 -8 21 -15 27 -15 7
0 12 -7 12 -15 0 -8 9 -15 20 -15 11 0 20 -6 20 -13 0 -7 32 -39 70 -71 39
-32 70 -63 70 -67 0 -5 9 -9 20 -9 11 0 20 -4 20 -10 0 -18 34 -50 53 -50 13
0 17 -5 13 -16 -5 -12 -1 -14 17 -9 15 4 18 4 8 -3 -19 -13 -3 -35 20 -29 11
3 16 1 13 -4 -6 -10 64 -79 109 -106 15 -10 27 -23 27 -29 0 -11 42 -44 56
-44 3 0 0 8 -7 17 -12 15 -12 16 1 8 35 -19 40 -27 29 -41 -8 -9 -5 -15 10
-23 11 -6 27 -11 35 -11 9 0 16 -5 16 -11 0 -5 -4 -7 -10 -4 -5 3 -10 2 -10
-2 0 -16 23 -33 44 -33 10 0 16 -3 13 -7 -9 -8 49 -63 66 -63 7 0 30 -23 52
-51 27 -35 44 -49 56 -46 11 3 16 0 13 -7 -6 -15 27 -46 53 -51 10 -2 20 -4
23 -4 3 -1 0 -5 -6 -9 -8 -5 -4 -13 12 -25 19 -14 22 -15 18 -2 -11 28 11 15
34 -20 12 -19 27 -35 32 -35 18 0 48 -33 43 -47 -3 -8 -2 -13 3 -12 22 4 34
-2 34 -17 0 -12 7 -15 25 -12 14 3 25 1 25 -3 0 -5 -8 -9 -17 -9 -16 -1 -15
-2 2 -12 11 -6 30 -22 43 -36 16 -16 26 -21 35 -14 7 5 21 6 32 1 17 -6 17 -8
3 -8 -21 -1 -22 -10 -4 -33 17 -23 26 -23 26 -1 0 19 10 12 14 -10 4 -32 37
-68 56 -62 10 3 21 1 25 -5 3 -5 1 -10 -6 -10 -7 0 -2 -11 11 -25 13 -14 31
-24 39 -23 10 2 15 -3 13 -14 -2 -10 2 -18 8 -18 5 0 27 -17 48 -38 47 -48
147 -132 156 -132 4 0 22 -15 40 -32 54 -54 83 -78 95 -78 6 0 11 -4 11 -9 0
-11 71 -57 82 -53 5 1 7 -3 5 -9 -1 -6 26 -30 60 -53 34 -22 62 -46 62 -52 1
-6 13 -17 29 -25 15 -7 59 -39 97 -69 95 -75 142 -110 150 -110 4 0 14 -7 22
-16 10 -9 26 -14 40 -11 17 3 23 1 19 -8 -4 -12 32 -55 47 -55 4 0 28 -16 54
-36 43 -33 48 -34 54 -17 4 10 8 13 8 6 1 -7 8 -10 18 -6 13 5 15 2 11 -15 -5
-18 4 -29 49 -61 53 -38 83 -43 83 -16 0 7 -8 12 -17 11 -10 0 -18 6 -18 14 0
8 -10 14 -25 15 -14 0 -26 5 -27 10 0 6 3 9 8 7 6 -1 5 7 -2 19 -9 17 -8 31 1
60 8 22 10 42 7 46 -4 3 -1 13 6 21 9 13 9 14 -1 8 -9 -5 -11 2 -7 30 4 33 3
35 -9 19 -12 -17 -14 -16 -24 13 -6 18 -8 32 -4 32 4 0 -1 5 -10 11 -10 5 -18
14 -18 20 0 16 -83 98 -93 92 -6 -3 -7 -2 -4 4 5 8 -25 42 -185 209 -25 27
-108 110 -185 185 -76 75 -208 210 -293 299 -85 90 -211 220 -280 289 -69 69
-156 162 -195 206 -38 43 -81 91 -95 106 -14 15 -43 48 -65 74 -22 26 -52 61
-67 79 -15 17 -51 59 -80 94 -67 80 -139 162 -309 354 -131 149 -371 433 -446
528 -6 8 -34 42 -62 75 -28 33 -97 119 -153 190 -56 72 -138 175 -183 230 -45
55 -92 116 -105 135 -27 38 -50 67 -93 114 -16 17 -49 58 -75 91 -25 33 -49
62 -52 65 -3 3 -37 46 -75 95 -84 110 -226 286 -241 300 -6 6 -33 37 -60 70
-27 33 -53 65 -59 71 -5 6 -48 59 -95 119 -47 60 -134 170 -193 244 -132 166
-110 139 -242 301 -248 304 -352 434 -394 488 -25 31 -83 102 -131 157 -47 55
-130 154 -185 220 -155 188 -481 562 -565 650 -42 44 -172 181 -287 305 -459
491 -1316 1335 -1608 1585 -39 33 -79 67 -90 77 -26 23 -169 135 -220 173 -22
16 -71 56 -110 88 -87 72 -90 74 -150 116 -28 19 -52 38 -55 41 -4 5 -71 57
-105 82 -11 8 -107 81 -186 142 -28 22 -93 67 -144 101 -51 35 -99 68 -107 74
-7 7 -75 51 -150 99 -76 48 -184 117 -240 154 -57 37 -134 84 -171 105 -38 21
-111 66 -163 101 -52 34 -98 62 -103 62 -4 0 -43 22 -87 48 -43 26 -128 74
-189 106 -60 32 -114 62 -120 66 -17 13 -244 130 -410 212 -88 43 -168 83
-178 89 -26 14 -268 125 -347 159 -36 15 -112 49 -170 75 -58 26 -163 71 -235
100 -71 29 -170 71 -220 92 -49 22 -101 44 -115 48 -14 4 -72 27 -130 50 -58
24 -150 60 -205 81 -55 20 -134 50 -175 66 -74 29 -350 127 -545 195 -55 19
-125 41 -155 49 -67 18 -77 21 -265 74 -82 24 -193 53 -245 66 -52 12 -180 43
-285 68 -176 43 -465 102 -795 162 -74 13 -171 31 -215 40 -44 8 -170 28 -280
44 -110 16 -245 36 -300 44 -382 56 -847 94 -1260 102 -132 2 -276 5 -320 7
-44 1 -253 -1 -465 -4z m15128 -10329 c7 -11 9 -20 4 -20 -4 0 -13 9 -20 20
-7 11 -9 20 -4 20 4 0 13 -9 20 -20z m520 -471 c-3 -8 -7 -3 -11 10 -4 17 -3
21 5 13 5 -5 8 -16 6 -23z m1039 -661 c-3 -7 -5 -2 -5 12 0 14 2 19 5 13 2 -7
2 -19 0 -25z m-67 -38 c0 -5 -4 -10 -10 -10 -5 0 -10 5 -10 10 0 6 5 10 10 10
6 0 10 -4 10 -10z m180 -60 c0 -5 -7 -10 -16 -10 -8 0 -12 5 -9 10 3 6 10 10
16 10 5 0 9 -4 9 -10z m63 -83 c32 -22 33 -23 15 -41 -17 -18 -18 -18 -18 -2
0 12 -5 16 -14 13 -10 -4 -13 -1 -10 7 3 7 -2 16 -10 19 -17 7 -22 27 -6 27 5
0 24 -10 43 -23z"/>
<path d="M27850 33674 c-295 -16 -532 -38 -950 -90 -304 -38 -738 -108 -864
-139 -34 -8 -92 -21 -131 -29 -496 -97 -1088 -252 -1465 -381 -69 -24 -224
-77 -345 -118 -291 -99 -531 -185 -580 -207 -22 -10 -76 -32 -120 -50 -163
-64 -329 -134 -415 -173 -30 -14 -140 -62 -245 -107 -194 -83 -228 -99 -445
-203 -264 -126 -917 -457 -1027 -520 -34 -19 -71 -38 -83 -42 -11 -4 -57 -28
-101 -53 -44 -26 -113 -65 -152 -87 -40 -22 -81 -46 -92 -53 -11 -7 -74 -39
-140 -72 -66 -33 -138 -70 -160 -83 -22 -13 -69 -38 -105 -56 -36 -18 -74 -38
-85 -44 -11 -6 -60 -32 -110 -57 -123 -64 -260 -138 -318 -172 -26 -15 -51
-28 -55 -28 -4 0 -39 -18 -77 -41 -39 -23 -108 -61 -155 -86 -47 -25 -103 -55
-125 -68 -22 -12 -107 -60 -190 -105 -82 -46 -168 -93 -190 -105 -22 -12 -71
-40 -110 -62 -38 -22 -113 -63 -165 -91 -52 -27 -135 -73 -184 -101 -49 -28
-92 -51 -96 -51 -4 0 -18 -8 -31 -19 -31 -24 -79 -51 -207 -118 -56 -29 -119
-63 -140 -76 -20 -13 -126 -70 -234 -125 -109 -56 -231 -119 -270 -141 -40
-21 -107 -55 -148 -77 -41 -21 -82 -43 -90 -49 -8 -7 -31 -18 -50 -25 -19 -7
-46 -21 -60 -30 -35 -24 -260 -139 -355 -182 -110 -49 -270 -121 -330 -148
-74 -32 -156 -70 -190 -87 -55 -27 -639 -260 -730 -291 -49 -17 -153 -53 -230
-80 -77 -27 -185 -63 -240 -80 -55 -17 -152 -46 -215 -65 -63 -20 -140 -40
-170 -46 -30 -6 -84 -18 -120 -26 -749 -176 -1397 -239 -2105 -205 -311 15
-649 48 -790 77 -66 13 -163 31 -215 40 -242 41 -932 224 -1200 319 -218 78
-266 96 -395 147 -77 30 -187 76 -245 102 -58 26 -152 67 -210 92 -57 25 -114
51 -125 59 -11 7 -42 21 -70 32 -27 11 -88 39 -135 62 -47 23 -137 64 -200 92
-63 27 -166 76 -228 107 -160 82 -160 72 -2 -106 101 -112 344 -329 519 -464
46 -35 118 -90 160 -122 181 -139 329 -247 471 -343 69 -46 170 -115 225 -154
55 -38 111 -75 125 -82 14 -7 27 -15 30 -19 3 -3 17 -12 33 -20 15 -8 75 -43
135 -79 105 -63 118 -71 191 -109 145 -78 444 -214 661 -303 42 -17 290 -105
370 -131 284 -93 499 -149 880 -227 286 -58 317 -63 660 -100 354 -38 761 -49
1180 -30 188 8 660 51 760 70 30 5 114 19 185 30 72 12 168 30 215 40 47 11
127 27 179 35 52 9 102 20 110 24 9 5 34 11 56 15 22 4 96 23 163 42 68 19
179 49 245 65 67 16 140 37 162 46 22 8 114 41 205 73 91 32 199 70 240 85 86
31 432 177 565 238 89 41 799 398 925 465 36 18 103 53 150 77 47 23 110 57
140 75 63 38 309 178 390 222 30 17 84 46 120 66 36 19 70 38 75 42 8 6 126
73 220 124 18 10 227 134 430 255 39 23 122 73 185 112 63 39 129 80 147 90
17 10 51 30 75 46 24 15 52 32 63 39 77 42 270 154 320 184 33 20 98 57 145
82 47 25 110 60 139 77 29 17 109 61 179 97 70 37 132 70 137 74 13 10 267
142 455 235 145 72 166 82 355 168 55 25 143 65 195 90 52 24 106 48 120 52
14 4 54 21 90 38 36 16 92 40 125 52 53 21 173 71 259 109 43 19 175 68 341
127 77 27 176 63 220 79 137 50 150 54 500 154 50 15 119 35 155 46 36 10 144
40 240 65 96 25 191 50 210 55 40 11 248 59 360 84 41 9 156 34 255 55 169 37
361 73 570 107 50 8 115 19 145 24 115 19 653 89 835 109 105 11 254 28 332
36 377 42 1262 80 1633 71 283 -7 756 -30 925 -46 179 -17 613 -69 710 -85 50
-8 137 -22 195 -30 58 -9 128 -20 155 -25 28 -5 91 -17 140 -25 50 -9 140 -27
200 -40 61 -12 137 -28 170 -35 246 -48 735 -171 910 -229 303 -100 624 -215
737 -265 18 -8 129 -56 247 -106 210 -90 298 -131 396 -185 68 -37 323 -165
331 -165 3 0 20 -11 37 -24 18 -13 57 -37 87 -53 55 -28 72 -39 285 -173 61
-38 138 -85 172 -105 34 -19 68 -41 75 -48 14 -12 22 -17 98 -63 64 -39 150
-105 150 -115 0 -5 5 -9 11 -9 6 0 26 -12 44 -27 18 -16 43 -36 56 -45 13 -9
80 -59 149 -110 69 -51 138 -101 153 -111 16 -10 41 -29 55 -42 15 -14 33 -25
40 -25 7 0 28 -16 46 -35 19 -19 37 -35 39 -35 3 0 28 -22 55 -50 27 -27 52
-50 55 -50 3 0 20 -15 39 -32 18 -18 48 -44 66 -58 85 -67 262 -232 405 -377
66 -67 124 -120 129 -117 4 3 8 0 8 -7 0 -6 57 -69 128 -139 70 -71 161 -165
202 -210 183 -198 217 -235 316 -345 49 -55 96 -107 104 -116 8 -8 26 -29 40
-45 55 -65 276 -322 309 -360 20 -22 54 -62 76 -89 22 -26 50 -60 62 -74 52
-62 378 -442 532 -621 93 -107 205 -239 248 -292 74 -90 189 -221 223 -256 8
-8 22 -25 30 -37 8 -12 38 -49 66 -81 29 -33 114 -131 190 -219 76 -88 143
-164 150 -170 6 -5 47 -50 90 -100 43 -49 88 -99 99 -110 11 -11 45 -49 76
-85 56 -65 138 -155 313 -343 384 -415 1021 -1061 1057 -1072 10 -4 19 -12 19
-20 0 -7 10 -19 23 -28 13 -8 45 -36 72 -63 28 -27 84 -78 126 -115 41 -37 89
-80 105 -95 31 -30 168 -155 239 -218 22 -20 43 -36 48 -36 4 0 7 -7 7 -15 0
-8 4 -15 9 -15 5 0 27 -17 49 -37 52 -50 91 -83 97 -83 5 0 38 -30 150 -135
12 -11 43 -38 71 -60 27 -22 56 -47 65 -55 47 -45 151 -132 213 -180 39 -30
125 -100 191 -155 66 -55 141 -116 167 -135 26 -20 62 -50 81 -67 40 -36 333
-259 433 -328 16 -11 66 -48 113 -82 46 -35 87 -63 91 -63 5 0 32 -19 61 -42
29 -22 89 -65 133 -94 45 -30 86 -58 93 -64 7 -5 14 -10 17 -10 3 0 26 -15 52
-32 25 -18 53 -37 63 -43 9 -5 30 -19 46 -31 17 -11 37 -24 45 -28 17 -8 36
-19 104 -64 28 -18 53 -32 57 -32 4 0 40 -20 81 -45 40 -24 89 -51 108 -60 19
-9 37 -19 40 -24 3 -4 102 -56 220 -115 118 -59 222 -112 230 -117 16 -10 383
-185 415 -198 11 -4 50 -22 88 -39 37 -18 71 -32 76 -32 6 0 38 -13 73 -29 35
-16 77 -33 93 -37 17 -4 35 -10 40 -14 14 -10 186 -78 265 -105 36 -13 123
-43 194 -69 110 -39 349 -112 476 -146 19 -5 67 -18 105 -29 177 -51 574 -138
775 -170 41 -7 93 -16 115 -21 102 -22 526 -69 815 -90 80 -6 181 -14 225 -18
127 -11 812 -7 1015 6 102 7 228 15 280 18 177 10 540 46 690 69 335 51 540
88 745 135 99 23 225 52 280 65 84 19 313 82 420 116 223 70 366 121 478 170
51 22 117 49 147 60 81 30 155 64 448 205 72 35 135 64 138 64 7 0 492 252
579 302 67 38 75 43 253 148 204 121 414 262 579 390 40 30 88 66 108 80 62
43 303 230 324 251 9 8 50 42 91 74 80 63 282 230 315 261 11 11 59 53 106 95
242 214 656 630 875 880 27 31 76 87 109 124 227 258 790 991 726 945 -16 -11
-42 -22 -58 -24 -42 -4 -92 -38 -372 -251 -37 -27 -161 -129 -277 -225 -354
-294 -719 -585 -911 -726 -195 -143 -564 -392 -733 -495 -47 -29 -92 -58 -100
-65 -8 -7 -37 -24 -65 -38 -27 -15 -57 -31 -65 -36 -76 -49 -364 -203 -646
-344 -187 -94 -244 -121 -384 -184 -30 -13 -77 -34 -105 -47 -136 -61 -207
-91 -405 -173 -118 -50 -248 -102 -288 -116 -41 -14 -117 -44 -170 -65 -178
-72 -589 -204 -827 -266 -77 -20 -168 -45 -202 -55 -90 -28 -569 -127 -773
-160 -745 -122 -1244 -170 -2008 -191 -396 -11 -862 -2 -1092 21 -168 17 -421
39 -575 50 -82 6 -206 21 -275 35 -137 26 -307 56 -500 86 -69 11 -226 42
-350 70 -124 28 -241 55 -260 59 -66 15 -225 59 -289 79 -35 12 -69 21 -75 21
-41 0 -628 214 -796 290 -214 96 -746 366 -780 394 -8 7 -58 37 -110 66 -52
29 -104 60 -115 70 -11 10 -48 36 -82 57 -143 89 -283 188 -448 316 -188 146
-254 199 -284 227 -9 9 -34 29 -56 45 -52 37 -225 182 -246 205 -9 10 -58 56
-110 102 -52 46 -121 108 -154 138 -84 77 -456 449 -481 482 -16 21 -184 205
-240 262 -5 6 -39 45 -73 86 -35 41 -71 82 -80 90 -9 8 -32 35 -51 60 -44 57
-68 85 -103 124 -16 17 -38 42 -51 56 -12 14 -49 54 -82 90 -32 36 -80 90
-106 120 -179 211 -279 331 -321 384 -94 120 -114 146 -262 342 -82 110 -152
201 -155 204 -4 3 -26 32 -51 64 -24 33 -55 74 -69 92 -14 19 -58 81 -97 138
-40 58 -110 156 -155 218 -45 62 -94 131 -110 153 -15 22 -62 87 -102 145 -87
122 -352 513 -651 960 -116 173 -240 358 -276 410 -36 52 -100 147 -144 210
-78 114 -146 212 -194 281 -86 121 -150 210 -179 249 -19 25 -43 58 -55 74
-12 16 -49 64 -82 105 -33 42 -80 103 -105 136 -87 116 -263 340 -289 370 -14
17 -78 93 -141 170 -274 336 -370 447 -585 680 -84 91 -571 578 -621 622 -11
10 -79 70 -150 134 -137 123 -453 381 -599 489 -48 36 -131 97 -184 137 -154
115 -574 394 -716 476 -242 139 -532 291 -685 357 -41 18 -113 50 -160 72 -47
22 -116 51 -155 65 -38 14 -83 31 -100 39 -45 20 -338 131 -435 164 -47 16
-119 41 -160 56 -100 36 -351 114 -635 197 -179 53 -498 130 -790 192 -143 31
-278 60 -300 65 -99 24 -631 109 -815 130 -47 5 -121 14 -165 19 -132 17 -565
50 -809 61 -281 13 -754 11 -1056 -6z"/>
<path d="M27845 29714 c-83 -6 -573 -52 -670 -64 -315 -38 -357 -44 -610 -90
-136 -24 -438 -86 -485 -100 -187 -53 -270 -77 -425 -121 -558 -158 -1260
-416 -1792 -658 -62 -28 -115 -51 -118 -51 -3 0 -62 -27 -132 -60 -69 -33
-127 -60 -129 -60 -18 0 -832 -414 -984 -499 -47 -27 -128 -71 -180 -98 -141
-75 -293 -158 -338 -187 -35 -22 -117 -68 -267 -151 -71 -39 -149 -86 -226
-137 -224 -145 -317 -205 -348 -223 -53 -30 -120 -73 -168 -106 -23 -16 -44
-29 -47 -29 -4 0 -64 -38 -134 -84 -70 -46 -174 -113 -232 -148 -58 -36 -161
-101 -230 -145 -69 -44 -215 -135 -325 -203 -110 -68 -216 -133 -235 -145 -93
-59 -192 -121 -207 -130 -10 -5 -34 -20 -53 -32 -32 -18 -130 -76 -415 -241
-33 -19 -89 -51 -125 -70 -36 -19 -94 -52 -130 -72 -121 -70 -612 -310 -634
-310 -2 0 -64 -29 -137 -63 -127 -61 -226 -101 -314 -127 -22 -7 -44 -16 -50
-20 -5 -4 -53 -24 -105 -45 -52 -20 -108 -43 -125 -50 -99 -42 -221 -90 -295
-115 -47 -16 -116 -41 -155 -55 -200 -76 -389 -142 -515 -181 -225 -69 -639
-181 -755 -205 -193 -39 -428 -81 -528 -94 -65 -8 -148 -22 -185 -30 -178 -39
-642 -59 -1216 -52 -523 7 -822 22 -901 47 -16 5 -86 19 -155 30 -69 12 -157
27 -197 35 -103 21 -143 20 -143 -4 0 -20 29 -33 100 -46 68 -12 126 -27 185
-50 58 -23 175 -60 455 -144 74 -23 149 -45 165 -51 17 -5 95 -25 175 -45 80
-19 174 -44 210 -55 93 -28 259 -68 374 -91 54 -10 115 -23 135 -29 152 -43
459 -84 761 -101 274 -16 1062 -5 1250 16 74 9 173 20 220 25 160 18 325 40
400 55 41 8 127 21 190 30 63 9 142 22 175 30 33 8 150 32 260 55 317 65 359
75 770 192 124 35 487 155 585 193 217 84 429 170 488 196 34 16 91 43 127 59
36 17 67 30 69 30 16 0 497 237 726 357 286 151 747 421 1023 600 53 35 148
93 210 130 134 80 343 208 447 274 41 26 145 86 230 135 85 48 190 109 233
135 43 27 80 49 82 49 2 0 42 23 90 50 48 28 89 50 92 50 2 0 35 17 71 39 152
88 787 410 891 451 25 10 91 39 146 65 55 25 125 57 155 70 30 12 87 37 125
54 39 17 95 39 125 50 30 10 89 33 130 51 41 17 122 50 180 71 58 22 142 55
187 75 107 44 366 130 708 233 162 49 714 184 915 224 41 9 131 27 200 41 160
32 404 69 870 131 249 33 356 39 695 39 438 0 598 -14 1300 -115 130 -18 531
-100 635 -129 19 -5 139 -35 265 -66 127 -31 268 -69 315 -85 47 -15 139 -44
205 -65 158 -48 505 -161 530 -173 11 -5 40 -16 65 -26 25 -10 54 -21 65 -26
11 -4 94 -36 185 -70 91 -34 203 -78 250 -99 221 -96 670 -318 697 -345 8 -8
18 -15 23 -15 5 0 47 -22 95 -50 48 -27 88 -50 89 -50 6 0 163 -97 195 -120
19 -14 47 -32 62 -40 41 -22 191 -116 279 -174 43 -28 97 -62 121 -76 23 -14
67 -44 97 -67 31 -24 59 -43 63 -43 11 0 115 -72 158 -109 19 -17 51 -38 70
-48 20 -10 42 -24 49 -30 7 -7 17 -13 20 -13 4 0 18 -10 32 -23 14 -13 41 -32
60 -42 19 -11 52 -37 72 -57 20 -21 41 -38 46 -38 6 0 12 -4 14 -8 6 -15 101
-82 116 -82 8 0 12 -3 9 -7 -4 -3 8 -16 27 -27 40 -25 154 -109 177 -131 9 -8
20 -15 25 -15 6 0 34 -22 63 -49 29 -27 69 -57 88 -67 20 -11 49 -30 65 -44
15 -14 42 -36 59 -50 17 -14 48 -39 68 -57 79 -70 135 -112 172 -129 21 -11
39 -25 39 -31 0 -7 5 -13 11 -13 6 0 22 -13 36 -30 13 -16 31 -30 39 -30 8 0
14 -7 14 -15 0 -8 3 -15 8 -15 4 0 39 -29 77 -65 39 -35 73 -65 78 -65 4 0 15
-8 25 -17 10 -10 40 -36 66 -58 26 -21 58 -48 71 -60 12 -11 51 -45 85 -75 35
-30 75 -66 90 -80 15 -14 42 -38 61 -54 19 -16 52 -45 74 -64 87 -74 171 -150
235 -213 38 -36 89 -83 115 -105 25 -21 74 -66 109 -99 34 -33 105 -99 157
-147 52 -47 124 -115 161 -150 36 -34 132 -126 214 -203 81 -77 161 -153 178
-169 70 -67 177 -166 265 -246 52 -47 101 -92 110 -101 9 -9 39 -36 66 -59 58
-50 220 -196 250 -225 11 -12 42 -39 70 -60 78 -63 86 -69 165 -136 41 -35 77
-66 80 -69 9 -12 293 -254 375 -320 43 -36 114 -94 156 -130 74 -63 344 -287
364 -303 6 -4 53 -42 106 -85 52 -42 110 -88 129 -102 18 -14 45 -35 59 -47
30 -26 133 -107 181 -143 18 -14 54 -42 79 -62 25 -21 49 -38 52 -38 4 0 25
-15 48 -32 22 -18 62 -49 88 -68 26 -19 50 -37 53 -40 3 -3 27 -21 53 -40 27
-19 57 -43 68 -52 10 -10 23 -18 27 -18 5 0 17 -10 28 -21 10 -12 39 -35 64
-52 25 -17 58 -43 74 -59 17 -15 35 -28 42 -28 7 0 17 -6 21 -13 4 -8 35 -33
68 -56 33 -23 80 -57 105 -76 25 -19 49 -35 53 -35 5 0 33 -19 62 -42 30 -24
69 -53 87 -66 18 -13 65 -45 103 -72 39 -28 78 -55 88 -62 11 -7 29 -21 40
-32 12 -10 33 -26 47 -34 14 -9 62 -45 108 -79 45 -35 85 -63 88 -63 3 0 33
-20 65 -45 33 -25 63 -45 68 -45 5 0 11 -7 15 -15 3 -8 10 -15 15 -15 10 0 97
-57 151 -100 21 -17 43 -30 49 -30 6 0 11 -4 11 -8 0 -7 112 -87 178 -127 9
-5 42 -27 74 -47 31 -21 60 -38 63 -38 3 0 11 -5 18 -11 11 -9 299 -192 523
-332 51 -31 97 -57 103 -57 6 0 11 -4 11 -9 0 -5 8 -11 18 -15 9 -3 40 -18 67
-34 28 -15 84 -46 125 -67 41 -22 79 -43 85 -48 43 -32 106 -68 325 -185 47
-25 110 -59 140 -76 90 -51 528 -266 700 -344 25 -11 86 -38 135 -60 50 -23
128 -56 175 -76 96 -39 245 -102 275 -116 11 -5 41 -16 67 -24 26 -9 56 -20
65 -24 62 -31 91 -44 104 -46 8 -1 36 -12 63 -24 27 -12 51 -22 53 -22 3 0 32
-11 66 -24 34 -13 132 -50 217 -81 85 -32 182 -68 215 -80 33 -13 119 -42 190
-65 72 -23 138 -46 147 -51 10 -5 26 -9 35 -9 10 -1 81 -21 158 -46 77 -25
156 -49 175 -54 37 -9 277 -72 370 -96 88 -24 179 -44 264 -59 43 -8 86 -17
95 -20 45 -13 505 -86 633 -100 81 -8 178 -19 215 -24 149 -21 576 -33 1001
-29 403 5 460 7 742 37 517 55 911 125 1390 250 487 127 776 228 1265 444 132
58 454 222 575 292 134 78 380 251 495 349 33 28 69 58 80 68 11 9 40 33 65
53 25 21 75 65 111 99 36 33 105 96 152 139 92 84 116 124 69 112 -15 -3 -33
-14 -40 -23 -14 -19 -169 -128 -282 -198 -90 -57 -491 -261 -645 -328 -60 -27
-150 -67 -200 -88 -86 -38 -167 -74 -265 -116 -25 -10 -97 -38 -160 -61 -63
-23 -142 -53 -175 -66 -149 -60 -595 -194 -863 -259 -235 -58 -641 -130 -852
-151 -80 -8 -203 -21 -275 -29 -241 -27 -511 -39 -759 -33 -273 6 -689 29
-971 53 -246 20 -718 72 -900 99 -55 8 -167 24 -250 35 -214 30 -515 85 -680
125 -414 99 -487 118 -720 181 -87 24 -281 82 -345 104 -310 105 -668 241
-855 325 -266 119 -731 351 -945 470 -85 48 -177 100 -205 115 -73 41 -314
188 -435 267 -123 80 -194 129 -628 435 -82 58 -233 172 -256 193 -6 6 -27 22
-46 35 -19 13 -84 62 -144 110 -60 47 -158 123 -217 170 -202 158 -254 200
-334 266 -44 36 -96 80 -115 98 -19 17 -66 58 -105 90 -149 124 -172 143 -238
201 -38 33 -93 80 -122 105 -58 49 -249 217 -299 264 -17 16 -85 79 -151 140
-270 251 -241 224 -520 491 -360 345 -917 907 -1114 1124 -13 14 -58 62 -100
106 -106 111 -220 232 -326 350 -49 54 -117 128 -151 164 -33 37 -96 107 -139
156 -44 50 -102 115 -131 145 -28 30 -62 67 -75 81 -13 15 -69 75 -125 135
-56 60 -147 161 -204 224 -57 63 -156 171 -221 240 -64 69 -145 156 -180 195
-35 38 -132 140 -214 225 -262 270 -362 374 -388 405 -24 29 -120 124 -437
435 -120 118 -679 646 -728 688 -12 11 -59 53 -105 94 -45 41 -100 90 -122
109 -22 19 -42 36 -45 39 -4 5 -254 219 -305 262 -207 174 -680 526 -1018 759
-60 41 -259 164 -332 204 -27 15 -111 62 -185 103 -224 124 -551 277 -810 379
-422 165 -1090 338 -1654 429 -49 7 -105 19 -125 24 -20 6 -94 18 -166 26
-346 39 -726 76 -875 85 -161 10 -1075 20 -1195 13z"/>
<path d="M27055 26536 c-5 -2 -75 -9 -155 -16 -228 -18 -444 -39 -580 -55
-209 -26 -777 -134 -970 -185 -58 -15 -139 -35 -180 -45 -154 -34 -630 -195
-935 -315 -315 -123 -333 -131 -563 -234 -129 -58 -615 -301 -702 -351 -36
-21 -108 -62 -160 -90 -52 -29 -123 -70 -157 -91 -34 -22 -90 -57 -125 -78
-35 -22 -81 -53 -103 -70 -21 -17 -72 -53 -112 -81 -124 -85 -315 -227 -378
-280 -33 -27 -83 -68 -110 -90 -28 -22 -81 -70 -120 -106 -38 -36 -90 -83
-115 -105 -315 -278 -750 -747 -935 -1008 -22 -31 -63 -89 -92 -128 -29 -38
-55 -79 -58 -89 -4 -11 -11 -19 -16 -19 -5 0 -9 -5 -9 -10 0 -6 -18 -35 -39
-64 -21 -28 -51 -74 -65 -102 -36 -65 -45 -81 -82 -134 -17 -25 -53 -85 -79
-135 -26 -49 -67 -126 -91 -169 -24 -44 -44 -83 -44 -88 0 -7 -91 -206 -111
-242 -6 -11 -20 -47 -30 -80 -19 -58 -60 -162 -100 -254 -11 -23 -26 -67 -33
-97 -8 -29 -19 -63 -25 -74 -11 -19 -67 -219 -97 -346 -8 -33 -21 -85 -29
-115 -19 -70 -35 -141 -45 -205 -4 -27 -17 -90 -28 -140 -10 -49 -25 -126 -31
-170 -7 -44 -16 -105 -21 -135 -10 -60 -30 -262 -55 -555 -29 -327 -6 -1049
45 -1404 11 -80 20 -161 20 -180 0 -77 27 -104 62 -63 23 26 101 351 143 592
16 94 66 303 149 625 74 287 142 498 296 915 41 111 134 328 206 477 61 130
182 371 229 458 20 39 46 88 57 110 11 21 28 51 38 65 10 14 55 85 101 158 98
154 146 229 174 269 85 122 192 271 206 288 25 30 97 121 154 195 27 36 52 67
55 70 3 3 52 61 110 130 114 136 118 141 241 280 127 144 469 478 669 655 56
49 439 357 503 404 82 60 336 228 435 286 46 28 95 57 110 66 149 92 459 250
687 352 55 25 125 56 155 70 63 28 231 95 269 108 14 4 85 28 156 54 209 73
300 103 398 130 159 43 486 121 642 154 83 17 200 43 260 56 61 14 172 34 248
45 77 11 142 22 146 25 4 2 59 9 122 15 63 6 164 20 224 30 119 21 260 34 535
51 197 12 581 -2 753 -27 54 -8 151 -19 215 -24 144 -12 225 -23 322 -43 41
-8 102 -18 135 -21 108 -9 142 -15 181 -30 21 -9 77 -25 124 -37 47 -12 101
-27 120 -34 19 -8 69 -23 110 -35 91 -27 167 -52 240 -80 30 -12 75 -28 100
-36 44 -15 172 -63 300 -112 36 -13 79 -30 95 -36 17 -6 48 -21 69 -34 21 -12
64 -34 96 -47 71 -30 419 -213 441 -231 8 -8 20 -14 25 -14 5 -1 41 -23 79
-50 39 -28 86 -58 105 -67 19 -10 56 -34 82 -53 26 -19 63 -46 83 -60 189
-130 425 -346 592 -540 100 -116 207 -303 278 -485 51 -130 56 -106 37 160
-11 148 -16 171 -64 305 -84 237 -228 528 -359 725 -19 28 -38 58 -44 67 -5 8
-30 44 -55 78 -25 34 -52 72 -60 85 -88 131 -542 617 -655 701 -40 30 -231
180 -274 216 -62 52 -228 159 -387 249 -96 54 -177 99 -180 99 -3 0 -37 15
-77 34 -182 85 -562 218 -707 246 -30 7 -109 24 -175 40 -377 90 -620 126
-1010 149 -119 7 -783 13 -800 7z"/>
<path d="M45070 26056 c0 -24 25 -43 35 -26 6 10 -16 50 -27 50 -5 0 -8 -11
-8 -24z"/>
<path d="M45136 25831 c-4 -7 -5 -15 -2 -18 9 -9 19 4 14 18 -4 11 -6 11 -12
0z"/>
<path d="M45263 25820 c1 -11 5 -20 9 -20 4 0 8 9 8 20 0 11 -4 20 -9 20 -6 0
-9 -9 -8 -20z"/>
<path d="M45315 25770 c-3 -5 1 -10 9 -10 9 0 16 5 16 10 0 6 -4 10 -9 10 -6
0 -13 -4 -16 -10z"/>
<path d="M45310 25730 c0 -5 12 -10 28 -10 21 0 24 2 12 10 -20 13 -40 13 -40
0z"/>
<path d="M45390 25681 c0 -5 5 -13 10 -16 6 -3 10 -2 10 4 0 5 -4 13 -10 16
-5 3 -10 2 -10 -4z"/>
</g>
</svg>
