<svg xmlns="http://www.w3.org/2000/svg" viewBox="0 11.449999809265137 130.66000366210938 33.790000915527344" data-asc="0.89111328125"><g fill="#000000"><g fill="#000000" transform="translate(0, 0)"><path d="M22.27 27.66Q25.71 28.39 27.42 30.00Q29.79 32.25 29.79 35.50Q29.79 37.96 28.22 40.22Q26.66 42.48 23.94 43.52Q21.22 44.56 15.63 44.56L0 44.56L0 43.65L1.25 43.65Q3.32 43.65 4.22 42.33Q4.79 41.48 4.79 38.70L4.79 17.31Q4.79 14.23 4.08 13.43Q3.13 12.35 1.25 12.35L0 12.35L0 11.45L14.31 11.45Q18.31 11.45 20.73 12.04Q24.39 12.92 26.32 15.15Q28.25 17.38 28.25 20.29Q28.25 22.78 26.73 24.74Q25.22 26.71 22.27 27.66M9.47 26.34Q10.38 26.51 11.54 26.60Q12.70 26.68 14.09 26.68Q17.65 26.68 19.45 25.92Q21.24 25.15 22.19 23.56Q23.14 21.97 23.14 20.09Q23.14 17.19 20.78 15.14Q18.41 13.09 13.87 13.09Q11.43 13.09 9.47 13.62L9.47 26.34M9.47 42.16Q12.30 42.82 15.06 42.82Q19.48 42.82 21.80 40.83Q24.12 38.84 24.12 35.91Q24.12 33.98 23.07 32.20Q22.02 30.42 19.65 29.39Q17.29 28.37 13.79 28.37Q12.28 28.37 11.21 28.42Q10.13 28.47 9.47 28.59L9.47 42.16ZM45.02 21.53Q50.10 21.53 53.17 25.39Q55.79 28.69 55.79 32.96Q55.79 35.96 54.35 39.04Q52.91 42.11 50.38 43.68Q47.85 45.24 44.75 45.24Q39.70 45.24 36.72 41.21Q34.20 37.82 34.20 33.59Q34.20 30.52 35.73 27.48Q37.26 24.44 39.75 22.99Q42.24 21.53 45.02 21.53M44.26 23.12Q42.97 23.12 41.66 23.89Q40.36 24.66 39.55 26.59Q38.75 28.52 38.75 31.54Q38.75 36.43 40.69 39.97Q42.63 43.51 45.80 43.51Q48.17 43.51 49.71 41.55Q51.25 39.60 51.25 34.84Q51.25 28.88 48.68 25.46Q46.95 23.12 44.26 23.12ZM60.72 22.19L80.71 22.19L80.71 23.12Q79.05 23.12 78.50 23.45Q77.95 23.78 77.64 24.27Q77.32 24.76 77.32 27.44L77.32 39.31Q77.32 41.89 77.59 42.40Q77.86 42.90 78.43 43.27Q79.00 43.65 80.71 43.65L80.71 44.56L69.14 44.56L69.14 43.65Q71.02 43.65 71.74 43.46Q72.46 43.26 72.88 42.52Q73.29 41.77 73.29 39.31L73.29 23.78L65.84 23.78L65.84 33.20Q65.84 38.55 65.37 40.71Q64.89 42.87 63.49 43.91Q62.08 44.95 60.28 44.95Q57.15 44.95 57.15 42.36Q57.15 41.48 57.65 40.92Q58.15 40.36 58.96 40.36Q59.81 40.36 60.55 41.06Q61.50 41.99 61.99 41.99Q63.09 41.99 63.59 40.15Q64.09 38.31 64.09 33.69L64.09 28.76Q64.09 24.95 63.54 24.12Q62.99 23.29 60.72 23.12L60.72 22.19ZM90.36 32.18L100.02 32.18L100.02 27.44Q100.02 25.32 99.85 24.67Q99.68 24.02 99.01 23.57Q98.34 23.12 96.63 23.12L96.63 22.19L107.45 22.19L107.45 23.12Q105.93 23.12 105.24 23.46Q104.54 23.80 104.30 24.45Q104.05 25.10 104.05 27.44L104.05 39.31Q104.05 41.43 104.24 42.11Q104.42 42.80 105.13 43.23Q105.83 43.65 107.45 43.65L107.45 44.56L96.63 44.56L96.63 43.65Q98.66 43.65 99.34 42.91Q100.02 42.16 100.02 39.31L100.02 33.76L90.36 33.76L90.36 39.31Q90.36 41.43 90.54 42.11Q90.72 42.80 91.43 43.23Q92.14 43.65 93.75 43.65L93.75 44.56L82.93 44.56L82.93 43.65Q85.11 43.65 85.72 42.86Q86.33 42.07 86.33 39.31L86.33 27.44Q86.33 25.32 86.15 24.63Q85.96 23.95 85.25 23.54Q84.55 23.12 82.93 23.12L82.93 22.19L93.75 22.19L93.75 23.12Q92.24 23.12 91.54 23.46Q90.84 23.80 90.60 24.45Q90.36 25.10 90.36 27.44L90.36 32.18ZM122.80 41.33Q119.36 43.99 118.48 44.41Q117.16 45.02 115.67 45.02Q113.35 45.02 111.85 43.43Q110.35 41.85 110.35 39.26Q110.35 37.62 111.08 36.43Q112.08 34.77 114.56 33.30Q117.04 31.84 122.80 29.74L122.80 28.86Q122.80 25.51 121.74 24.27Q120.68 23.02 118.65 23.02Q117.11 23.02 116.21 23.85Q115.28 24.68 115.28 25.76L115.33 27.17Q115.33 28.30 114.76 28.91Q114.18 29.52 113.26 29.52Q112.35 29.52 111.78 28.88Q111.21 28.25 111.21 27.15Q111.21 25.05 113.35 23.29Q115.50 21.53 119.38 21.53Q122.36 21.53 124.27 22.53Q125.71 23.29 126.39 24.90Q126.83 25.95 126.83 29.20L126.83 36.79Q126.83 39.99 126.95 40.71Q127.08 41.43 127.36 41.67Q127.64 41.92 128.00 41.92Q128.39 41.92 128.69 41.75Q129.20 41.43 130.66 39.97L130.66 41.33Q127.93 45.00 125.44 45.00Q124.24 45.00 123.54 44.17Q122.83 43.33 122.80 41.33M122.80 39.75L122.80 31.23Q119.12 32.69 118.04 33.30Q116.11 34.38 115.28 35.55Q114.45 36.72 114.45 38.11Q114.45 39.87 115.50 41.03Q116.55 42.19 117.92 42.19Q119.78 42.19 122.80 39.75Z"/></g></g></svg>